<svg t="1698480874844" class="icon" viewBox="0 0 1191 1024" version="1.1"
  xmlns="http://www.w3.org/2000/svg" p-id="2279" width="200" height="200">
  <path d="M986.336651 0H205.560652A206.446848 206.446848 0 0 0-0.036925 204.78523v614.392615a206.446848 206.446848 0 0 0 205.597577 204.78523h780.775999a206.446848 206.446848 0 0 0 205.597577-204.78523V204.78523A205.634502 205.634502 0 0 0 986.336651 0z m123.58748 819.21477a123.809029 123.809029 0 0 1-123.58748 123.107457H205.560652a123.809029 123.809029 0 0 1-123.58748-123.107457V204.822155a123.809029 123.809029 0 0 1 123.58748-123.107457h780.775999a123.809029 123.809029 0 0 1 123.58748 123.107457z" p-id="2280"></path>
  <path d="M528.653108 482.718592a160.807731 160.807731 0 0 0 47.706909-114.467041 163.983268 163.983268 0 0 0-327.966537 0 158.776864 158.776864 0 0 0 47.706909 114.467041 222.509159 222.509159 0 0 0-108.891389 192.600029v73.148132a68.310976 68.310976 0 0 0 67.314006 69.492572h316.962931A68.310976 68.310976 0 0 0 638.799942 748.466753v-73.148132a228.934083 228.934083 0 0 0-110.146834-192.600029z m-199.394201-114.467041a82.010097 82.010097 0 1 1 82.010096 81.677773A81.825472 81.825472 0 0 1 329.185057 368.140776z m226.386268 369.248521H266.818982v-60.962931a144.413097 144.413097 0 0 1 288.826193 0v60.962931z m409.865859-266.966681H759.913457a41.983557 41.983557 0 0 0-41.614308 41.466609 41.17121 41.17121 0 0 0 41.614308 41.429684h205.597577a41.946632 41.946632 0 0 0 41.614309-41.429684 41.208135 41.208135 0 0 0-41.577384-41.355834z m0-203.56671h-245.993365a41.983557 41.983557 0 0 0-41.614308 41.466609 41.17121 41.17121 0 0 0 41.614308 41.466609h245.993365a41.983557 41.983557 0 0 0 41.614309-41.466609 41.208135 41.208135 0 0 0-41.577384-41.466609z m0 408.388865h-163.983268a41.429684 41.429684 0 1 0 0 82.896293h163.983268a41.946632 41.946632 0 0 0 41.614309-41.429684 41.208135 41.208135 0 0 0-41.577384-41.466609z" p-id="2281"></path>
</svg>